<svg xmlns="http://www.w3.org/2000/svg" width="28" height="28" viewBox="0 0 28 28">
  <path id="iconfinder_00-ELASTOFONT-STORE-READY_user-circle_2703062" d="M29,15A14,14,0,1,0,5.286,25.059a.854.854,0,0,0,.22.2,13.919,13.919,0,0,0,18.987,0,.854.854,0,0,0,.22-.2A13.95,13.95,0,0,0,29,15ZM15,2.75a12.233,12.233,0,0,1,9.6,19.834,8.344,8.344,0,0,0-5.866-5.245,6.386,6.386,0,1,0-7.47,0A8.344,8.344,0,0,0,5.4,22.584,12.233,12.233,0,0,1,15,2.75Zm-4.636,9.427A4.636,4.636,0,1,1,15,16.8,4.637,4.637,0,0,1,10.364,12.177ZM6.869,24.137c.263-3.208,3.665-5.583,8.131-5.583s7.868,2.374,8.131,5.583a12.176,12.176,0,0,1-16.262,0Z" transform="translate(-1 -1)" fill="#1d1d1b"/>
</svg>
